<svg xmlns="http://www.w3.org/2000/svg" viewBox="0 0 256 256" role="img" aria-labelledby="title desc">
  <title id="title">AI 情报站标志</title>
  <desc id="desc">由神经网络节点组成的蓝紫色发光球体</desc>
  <defs>
    <radialGradient id="bg" cx="38%" cy="28%" r="78%">
      <stop offset="0" stop-color="#182d55"/>
      <stop offset="0.62" stop-color="#081426"/>
      <stop offset="1" stop-color="#030711"/>
    </radialGradient>
    <linearGradient id="ring" x1="26" y1="30" x2="228" y2="224" gradientUnits="userSpaceOnUse">
      <stop stop-color="#22d3ee"/>
      <stop offset="0.5" stop-color="#3b82f6"/>
      <stop offset="1" stop-color="#8b5cf6"/>
    </linearGradient>
    <filter id="glow" x="-60%" y="-60%" width="220%" height="220%">
      <feGaussianBlur stdDeviation="5" result="blur"/>
      <feMerge><feMergeNode in="blur"/><feMergeNode in="SourceGraphic"/></feMerge>
    </filter>
  </defs>
  <circle cx="128" cy="128" r="122" fill="url(#bg)" stroke="url(#ring)" stroke-width="3"/>
  <circle cx="128" cy="128" r="94" fill="none" stroke="#67e8f9" stroke-opacity=".18"/>
  <circle cx="128" cy="128" r="70" fill="none" stroke="#a78bfa" stroke-opacity=".17" stroke-dasharray="7 9"/>
  <g fill="none" stroke="url(#ring)" stroke-width="3" stroke-linecap="round" filter="url(#glow)">
    <path d="M72 91 111 70l43 12 31 41-18 45-41 20-45-25-10-44Z"/>
    <path d="m72 91 54 35 28-44M81 163l45-37 41 42m-56-98 15 56 59-3" opacity=".72"/>
  </g>
  <g fill="#dffbff" filter="url(#glow)">
    <circle cx="72" cy="91" r="6"/><circle cx="111" cy="70" r="5"/>
    <circle cx="154" cy="82" r="7"/><circle cx="185" cy="123" r="5"/>
    <circle cx="167" cy="168" r="6"/><circle cx="126" cy="188" r="5"/>
    <circle cx="81" cy="163" r="6"/><circle cx="71" cy="119" r="4"/>
    <circle cx="126" cy="126" r="9" fill="#22d3ee"/>
  </g>
</svg>
